<?xml version="1.0" standalone="no"?>
<!DOCTYPE svg PUBLIC "-//W3C//DTD SVG 20010904//EN"
 "http://www.w3.org/TR/2001/REC-SVG-20010904/DTD/svg10.dtd">
<svg version="1.0" xmlns="http://www.w3.org/2000/svg"
 width="512.000000pt" height="512.000000pt" viewBox="0 0 512.000000 512.000000"
 preserveAspectRatio="xMidYMid meet">

<g transform="translate(0.000000,512.000000) scale(0.100000,-0.100000)"
fill="#000000" stroke="none">
<path d="M3881 4730 c-177 -38 -331 -131 -441 -269 -154 -193 -196 -425 -125
-696 5 -18 -69 -60 -597 -345 -331 -179 -607 -326 -614 -328 -7 -2 -19 7 -28
20 -35 50 -163 170 -229 214 -79 53 -190 103 -292 130 -105 28 -341 26 -450
-4 -327 -90 -570 -335 -661 -667 -27 -98 -27 -362 -1 -450 84 -282 248 -483
492 -601 142 -69 224 -87 395 -88 112 -1 162 3 220 18 201 51 359 150 495 309
33 37 55 55 65 52 8 -3 284 -151 613 -328 526 -283 597 -324 592 -342 -45
-162 -45 -316 -1 -450 100 -308 398 -512 721 -492 305 19 553 217 647 517 30
97 32 279 4 380 -56 202 -196 371 -381 460 -113 54 -212 74 -344 68 -189 -9
-333 -73 -469 -206 -70 -69 -77 -73 -100 -62 -20 8 -1188 637 -1199 645 -2 0
6 25 17 53 26 68 50 208 50 292 0 84 -24 224 -50 292 -11 28 -19 52 -17 53 15
11 1198 646 1210 651 14 5 31 -7 69 -50 93 -104 235 -188 376 -223 90 -22 257
-21 342 2 248 65 436 233 520 464 144 394 -64 822 -465 957 -65 22 -102 27
-200 30 -66 2 -140 -1 -164 -6z m274 -252 c227 -75 374 -308 344 -549 -28
-228 -205 -408 -436 -441 -330 -47 -622 244 -575 573 46 320 362 517 667 417z
m-2648 -1223 c32 -8 101 -36 153 -62 260 -130 419 -428 382 -715 -39 -301
-247 -537 -542 -614 -97 -26 -254 -23 -355 5 -207 58 -373 197 -461 388 -46
97 -66 190 -66 303 0 361 254 653 617 711 64 10 199 2 272 -16z m2578 -1626
c333 -61 515 -422 365 -725 -141 -287 -503 -377 -759 -189 -251 185 -278 549
-58 770 123 122 286 175 452 144z"/>
</g>
</svg>
